<svg version="1.1" id="Layer_1" xmlns="http://www.w3.org/2000/svg" xmlns:xlink="http://www.w3.org/1999/xlink" x="0px" y="0px"
	 width="100%" viewBox="0 0 848 1049" enable-background="new 0 0 848 1049" xml:space="preserve">
<path fill="#FFFFFF" opacity="1.000000" stroke="none" 
	d="
M0.999995,574.000000 
	C1.000000,383.067963 1.000000,192.135925 1.000000,1.000000 
	C213.023270,1.000000 425.046600,1.000000 637.327881,1.323170 
	C636.353882,2.094363 635.155884,2.733159 633.884521,2.959186 
	C626.110107,4.341361 618.222717,5.218876 610.549622,7.018127 
	C568.859802,16.793856 533.890076,37.759407 505.454651,69.905830 
	C490.238525,87.107826 478.640839,106.359489 469.831329,127.434181 
	C460.357208,150.098969 455.332123,173.821960 455.131866,198.272202 
	C454.702026,250.757919 455.000000,303.249603 455.000000,355.738831 
	C455.000000,357.685944 455.000000,359.633057 455.000000,361.941711 
	C458.259705,361.577209 460.840546,361.292633 463.420410,360.999481 
	C475.704346,359.603638 488.236206,359.307587 500.226562,356.607300 
	C540.816833,347.466156 575.404419,327.615753 603.778503,296.874786 
	C619.336243,280.019318 631.661499,261.285431 640.928040,240.355667 
	C652.135315,215.042526 657.567932,188.409515 657.843323,160.965637 
	C658.378418,107.648605 658.000000,54.322403 658.000000,1.000000 
	C721.632996,1.000000 785.266052,1.000000 849.000000,1.000000 
	C849.000000,208.356644 849.000000,415.713287 848.577271,623.534973 
	C846.993774,624.051880 845.737976,623.830566 844.686523,624.196472 
	C827.716187,630.101624 810.295288,635.007263 793.922180,642.271118 
	C761.173828,656.799805 731.760742,676.371094 707.767761,703.562988 
	C695.738220,717.196411 685.235779,731.784729 676.722778,747.769653 
	C665.490417,768.860535 657.527283,791.125488 653.895569,814.846008 
	C653.330200,818.538940 652.293457,822.159668 651.474731,825.813721 
	C651.035461,825.761230 650.596191,825.708801 650.156921,825.656311 
	C648.172607,818.603027 646.276672,811.523438 644.188354,804.501099 
	C635.940063,776.764343 624.894714,750.239990 609.816345,725.466125 
	C595.118713,701.317749 577.302246,679.787354 554.838379,662.555603 
	C533.325867,646.053711 509.538086,633.756287 482.938965,627.478638 
	C473.875275,625.339539 464.786255,623.218079 455.000000,624.314575 
	C455.000000,766.446045 455.000000,908.223022 455.000000,1050.000000 
	C445.309998,1050.000000 435.620026,1050.000000 425.465027,1049.531372 
	C425.000000,971.812561 425.000000,894.562378 425.000000,817.097351 
	C371.495178,815.841919 325.491547,797.658386 287.471802,760.839417 
	C249.549301,724.114563 228.716766,678.753052 225.284836,626.378418 
	C221.592346,570.027710 238.113647,519.241638 275.428619,476.562134 
	C314.659973,431.690735 364.805267,408.676514 424.562805,407.733154 
	C424.562805,331.940887 424.562805,256.574585 424.562805,180.314774 
	C411.375031,181.226044 398.626556,181.638077 385.999268,183.098099 
	C370.193573,184.925598 354.394592,187.116409 338.757568,190.033951 
	C305.790588,196.184921 274.437225,207.340530 244.260895,221.908920 
	C223.308395,232.024246 203.305817,243.691635 184.274612,257.111542 
	C166.161163,269.884277 149.161133,283.958405 133.252380,299.342010 
	C126.336227,306.029846 119.691658,313.035248 113.345139,320.266296 
	C105.306000,329.425781 97.084465,338.527313 90.042297,348.436157 
	C79.103462,363.827881 68.803047,379.697510 58.764275,395.698517 
	C46.647240,415.012115 37.476597,435.824615 29.465496,457.124817 
	C15.642062,493.879059 6.097734,531.650391 2.919547,570.906006 
	C2.832428,571.982117 1.664123,572.970642 0.999995,574.000000 
M838.520386,523.036316 
	C832.922180,509.817871 828.148132,496.171875 821.557312,483.468414 
	C807.029480,455.467041 785.865784,433.004456 760.046753,415.095490 
	C725.040161,390.813629 685.798340,379.342896 643.414001,379.088989 
	C584.418213,378.735504 525.418640,379.000000 466.420685,379.000000 
	C464.471924,379.000000 462.523193,379.000000 459.028839,379.000000 
	C460.446075,392.485748 460.804352,405.425873 463.302399,417.938751 
	C471.966339,461.337341 492.162689,498.465546 524.985535,528.613037 
	C542.892090,545.059998 562.994141,557.762512 585.337646,567.139893 
	C606.895874,576.187805 629.482910,581.542786 652.684875,581.779907 
	C715.509460,582.422058 778.344910,582.000000 841.176086,582.000000 
	C842.949036,582.000000 844.721985,582.000000 846.954102,582.000000 
	C847.245422,561.708862 844.193665,542.588318 838.520386,523.036316 
z"/>
<path fill="#F3D053" opacity="1.000000" stroke="none" 
	d="
M0.999995,574.333313 
	C1.664123,572.970642 2.832428,571.982117 2.919547,570.906006 
	C6.097734,531.650391 15.642062,493.879059 29.465496,457.124817 
	C37.476597,435.824615 46.647240,415.012115 58.764275,395.698517 
	C68.803047,379.697510 79.103462,363.827881 90.042297,348.436157 
	C97.084465,338.527313 105.306000,329.425781 113.345139,320.266296 
	C119.691658,313.035248 126.336227,306.029846 133.252380,299.342010 
	C149.161133,283.958405 166.161163,269.884277 184.274612,257.111542 
	C203.305817,243.691635 223.308395,232.024246 244.260895,221.908920 
	C274.437225,207.340530 305.790588,196.184921 338.757568,190.033951 
	C354.394592,187.116409 370.193573,184.925598 385.999268,183.098099 
	C398.626556,181.638077 411.375031,181.226044 424.562805,180.314774 
	C424.562805,256.574585 424.562805,331.940887 424.562805,407.733154 
	C364.805267,408.676514 314.659973,431.690735 275.428619,476.562134 
	C238.113647,519.241638 221.592346,570.027710 225.284836,626.378418 
	C228.716766,678.753052 249.549301,724.114563 287.471802,760.839417 
	C325.491547,797.658386 371.495178,815.841919 425.000000,817.097351 
	C425.000000,894.562378 425.000000,971.812561 425.000000,1049.531372 
	C412.645782,1050.000000 400.291534,1050.000000 387.309143,1049.632568 
	C385.824524,1048.848389 385.001556,1048.170654 384.106384,1048.055664 
	C375.794586,1046.989502 367.457520,1046.115845 359.152222,1045.003662 
	C337.956512,1042.165283 317.291809,1036.937866 296.971191,1030.429565 
	C266.471283,1020.661133 237.422745,1007.567322 210.017242,990.968262 
	C183.737228,975.050964 158.935883,957.025940 137.128159,935.359314 
	C122.706161,921.030640 109.172241,905.747986 95.953957,890.282837 
	C78.690285,870.084595 64.634674,847.586304 52.152462,824.195312 
	C38.888100,799.338623 28.056696,773.409790 19.948303,746.367798 
	C11.534964,718.308777 5.319431,689.840576 2.925164,660.592407 
	C2.823520,659.350708 1.665758,658.195496 0.999996,657.000000 
	C1.000000,656.555542 1.000000,656.111084 1.337700,655.134521 
	C1.450268,652.401611 1.225134,650.200806 1.000001,648.000000 
	C1.000000,626.645752 1.000000,605.291565 1.337699,583.269897 
	C1.450265,580.401611 1.225132,578.200806 0.999999,576.000000 
	C1.000000,575.555542 1.000000,575.111084 0.999995,574.333313 
z"/>
<path fill="#C7AA43" opacity="1.000000" stroke="none" 
	d="
M455.468658,1050.000000 
	C455.000000,908.223022 455.000000,766.446045 455.000000,624.314575 
	C464.786255,623.218079 473.875275,625.339539 482.938965,627.478638 
	C509.538086,633.756287 533.325867,646.053711 554.838379,662.555603 
	C577.302246,679.787354 595.118713,701.317749 609.816345,725.466125 
	C624.894714,750.239990 635.940063,776.764343 644.188354,804.501099 
	C646.276672,811.523438 648.172607,818.603027 650.156921,825.656311 
	C650.596191,825.708801 651.035461,825.761230 651.474731,825.813721 
	C652.293457,822.159668 653.330200,818.538940 653.895569,814.846008 
	C657.527283,791.125488 665.490417,768.860535 676.722778,747.769653 
	C685.235779,731.784729 695.738220,717.196411 707.767761,703.562988 
	C731.760742,676.371094 761.173828,656.799805 793.922180,642.271118 
	C810.295288,635.007263 827.716187,630.101624 844.686523,624.196472 
	C845.737976,623.830566 846.993774,624.051880 848.577271,624.000000 
	C849.000000,765.924255 849.000000,907.848450 849.000000,1050.000000 
	C717.979187,1050.000000 586.958252,1050.000000 455.468658,1050.000000 
z"/>
<path fill="#EBD78E" opacity="1.000000" stroke="none" 
	d="
M657.562500,1.000000 
	C658.000000,54.322403 658.378418,107.648605 657.843323,160.965637 
	C657.567932,188.409515 652.135315,215.042526 640.928040,240.355667 
	C631.661499,261.285431 619.336243,280.019318 603.778503,296.874786 
	C575.404419,327.615753 540.816833,347.466156 500.226562,356.607300 
	C488.236206,359.307587 475.704346,359.603638 463.420410,360.999481 
	C460.840546,361.292633 458.259705,361.577209 455.000000,361.941711 
	C455.000000,359.633057 455.000000,357.685944 455.000000,355.738831 
	C455.000000,303.249603 454.702026,250.757919 455.131866,198.272202 
	C455.332123,173.821960 460.357208,150.098969 469.831329,127.434181 
	C478.640839,106.359489 490.238525,87.107826 505.454651,69.905830 
	C533.890076,37.759407 568.859802,16.793856 610.549622,7.018127 
	C618.222717,5.218876 626.110107,4.341361 633.884521,2.959186 
	C635.155884,2.733159 636.353882,2.094363 637.792847,1.323170 
	C639.388916,1.000000 640.777771,1.000000 642.817871,1.318362 
	C645.979309,1.424483 648.489685,1.212241 651.000000,1.000000 
	C653.041687,1.000000 655.083313,1.000000 657.562500,1.000000 
z"/>
<path fill="#FFFFFF" opacity="1.000000" stroke="none" 
	d="
M0.999996,657.468628 
	C1.665758,658.195496 2.823520,659.350708 2.925164,660.592407 
	C5.319431,689.840576 11.534964,718.308777 19.948303,746.367798 
	C28.056696,773.409790 38.888100,799.338623 52.152462,824.195312 
	C64.634674,847.586304 78.690285,870.084595 95.953957,890.282837 
	C109.172241,905.747986 122.706161,921.030640 137.128159,935.359314 
	C158.935883,957.025940 183.737228,975.050964 210.017242,990.968262 
	C237.422745,1007.567322 266.471283,1020.661133 296.971191,1030.429565 
	C317.291809,1036.937866 337.956512,1042.165283 359.152222,1045.003662 
	C367.457520,1046.115845 375.794586,1046.989502 384.106384,1048.055664 
	C385.001556,1048.170654 385.824524,1048.848389 386.840485,1049.632568 
	C258.405609,1050.000000 129.811203,1050.000000 1.000000,1050.000000 
	C1.000000,919.312500 1.000000,788.624939 0.999996,657.468628 
z"/>
<path fill="#FFFFFF" opacity="1.000000" stroke="none" 
	d="
M650.555847,1.000000 
	C648.489685,1.212241 645.979309,1.424483 643.234497,1.318362 
	C645.370544,1.000000 647.741150,1.000000 650.555847,1.000000 
z"/>
<path fill="#FFFFFF" opacity="1.000000" stroke="none" 
	d="
M0.999999,576.437500 
	C1.225132,578.200806 1.450265,580.401611 1.337699,582.801208 
	C1.000000,580.958313 1.000000,578.916687 0.999999,576.437500 
z"/>
<path fill="#FFFFFF" opacity="1.000000" stroke="none" 
	d="
M1.000001,648.437500 
	C1.225134,650.200806 1.450268,652.401611 1.337700,654.801208 
	C1.000000,652.958313 1.000000,650.916687 1.000001,648.437500 
z"/>
<path fill="#EBD78E" opacity="1.000000" stroke="none" 
	d="
M838.688599,523.403442 
	C844.193665,542.588318 847.245422,561.708862 846.954102,582.000000 
	C844.721985,582.000000 842.949036,582.000000 841.176086,582.000000 
	C778.344910,582.000000 715.509460,582.422058 652.684875,581.779907 
	C629.482910,581.542786 606.895874,576.187805 585.337646,567.139893 
	C562.994141,557.762512 542.892090,545.059998 524.985535,528.613037 
	C492.162689,498.465546 471.966339,461.337341 463.302399,417.938751 
	C460.804352,405.425873 460.446075,392.485748 459.028839,379.000000 
	C462.523193,379.000000 464.471924,379.000000 466.420685,379.000000 
	C525.418640,379.000000 584.418213,378.735504 643.414001,379.088989 
	C685.798340,379.342896 725.040161,390.813629 760.046753,415.095490 
	C785.865784,433.004456 807.029480,455.467041 821.557312,483.468414 
	C828.148132,496.171875 832.922180,509.817871 838.688599,523.403442 
z"/>
</svg>